<?xml version="1.0" encoding="utf-8"?>
<!-- Generator: Adobe Illustrator 23.1.0, SVG Export Plug-In . SVG Version: 6.00 Build 0)  -->
<svg version="1.1" id="Layer_1" xmlns="http://www.w3.org/2000/svg" xmlns:xlink="http://www.w3.org/1999/xlink" x="0px" y="0px"
	 viewBox="0 0 551.2 188" style="enable-background:new 0 0 551.2 188;" xml:space="preserve">
<style type="text/css">
	.st0{fill:#261E56;}
	.st1{enable-background:new    ;}
</style>
<g>
	<g id="Layer_1-2">
		<path class="st0" d="M94.2,0c-11,0.2-21,6.5-25.8,16.3L3.1,146.1L0,152.2V29.7C0,13.3,13.3,0,29.7,0c0,0,0,0,0,0H94.2z"/>
		<path class="st0" d="M160.6,188H29c11,0,21-6.2,25.9-16l15.2-30.2c4.7-9.3,14.2-15.2,24.7-15.2l0,0c10.4,0,20,5.9,24.7,15.2
			l15.2,30.2C139.6,181.8,149.6,188,160.6,188z"/>
		<path class="st0" d="M189.7,29.7v122.5l-3.1-6.2L121.3,16.3C116.4,6.4,106.5,0.2,95.5,0H160C176.4,0,189.7,13.3,189.7,29.7z"/>
		<path class="st0" d="M174.6,167.6c-2.9,4.9-8.3,7.9-14,7.8c-6.2,0-11.9-3.5-14.7-9l-15.2-30.2c-4.9-9.9-13.8-17.3-24.4-20.5
			c-1.1-0.3-1.7-1.4-1.4-2.5c0.1-0.5,0.5-1,1-1.2c10-6.1,13.1-19.2,7-29.1s-19.2-13.1-29.1-7s-13.1,19.2-7,29.1c1.7,2.8,4.1,5.2,7,7
			c1,0.6,1.2,1.9,0.6,2.8c-0.3,0.4-0.7,0.7-1.1,0.9c-10.6,3.2-19.4,10.6-24.4,20.5l-15.2,30.1c-3.9,8.2-13.7,11.7-21.9,7.8
			c-8.2-3.9-11.7-13.7-7.8-21.9c0.1-0.2,0.2-0.4,0.3-0.6L79.6,22c4.2-8.4,14.5-11.8,22.9-7.6c3.3,1.6,5.9,4.3,7.6,7.6l65.2,129.6
			C177.9,156.7,177.7,162.8,174.6,167.6z"/>
		<g class="st1">
			<path class="st0" d="M242,149.2c0-2.7,0.5-4.9,1.3-6.5c-1.3-1.3-2.9-1.9-4.4-1.9c-2.8,0-5.2,1.9-5.2,8c0,6.6,3.4,9.8,8.7,11.7
				c3,1.1,5.9,2.5,7.8,5.5l-1.7,1c-1.5-2.5-4.2-4.4-7.6-4.4c-2.3,0-4.3,0.6-5.9,1.4l-0.6-2c1.6-0.6,3.6-1,5.9-0.8
				c-5.1-1.9-8.8-5.1-8.8-12.8c0-6.5,3.3-9.5,7.3-9.5c2,0,4,0.8,5.5,2.4c1.3-1.6,3.1-2.4,5.4-2.4c4.9,0,7.6,3.6,7.6,10.2
				c0,6.3-2.7,10.1-7.6,10.1C244.7,159.2,242,155.4,242,149.2z M244.3,149.2c0,5.4,1.8,8.2,5.3,8.2c3.4,0,5.3-2.8,5.3-8.2
				c0-5.7-1.8-8.4-5.3-8.4C246.2,140.8,244.3,143.4,244.3,149.2z"/>
		</g>
		<g class="st1">
			<path class="st0" d="M278.3,152.8c0,4.2-3.1,6.9-7.3,6.9c-4.7,0-7.3-3-7.3-6.7c0-1.4,0.3-2.7,0.9-3.9l1.9,0.5
				c-0.4,1.1-0.6,2.2-0.6,3.3c0,3,2,4.9,5.1,4.9c3.3,0,5-2.1,5-5.1c0-5.9-6.3-7.3-6.3-13.4h2.2C271.9,144.4,278.3,146.4,278.3,152.8
				z"/>
		</g>
		<g class="st1">
			<path class="st0" d="M301.5,149.5c0,6.1-3.1,10.1-8.3,10.1c-5.2,0-8.2-4-8.2-9.8c0-2.4,0.6-4.3,1.6-5.8c-3-1.7-4.9-3.7-4.9-6.9
				c0-3.5,2.5-6.2,6.5-6.2c3.7,0,6.2,2.3,6.2,5.2c0,1.5-0.5,2.7-1.2,3.7c0.3,0,0.5-0.1,0.8-0.1C298.2,139.8,301.5,143.7,301.5,149.5
				z M287.5,142.7c0.5-0.5,0.9-1,1.5-1.5c2.2-1.9,3-3,3-5.1c0-2.1-1.6-3.5-4-3.5c-2.5,0-4.3,1.7-4.3,4.4
				C283.8,139.8,285.3,141.5,287.5,142.7z M299.1,149.5c0-5.1-2.1-8.1-5.9-8.1c-0.7,0-1.3,0.1-1.9,0.3c-0.3,0.3-0.6,0.5-0.9,0.8
				c-2.1,1.9-3,4-3,7.1c0,5.1,2.1,8,5.9,8C296.9,157.8,299.1,154.9,299.1,149.5z"/>
			<path class="st0" d="M331.6,148.1c0,3.5-0.6,6.2-1.8,8.7l-1.9-0.5c1-2.7,1.5-5.2,1.5-8.1c0-5.9-2.3-7.4-4.6-7.4s-3.9,1.4-3.9,4.9
				v7.1l-2.1,0.3v-7.3c0-3.8-1.6-4.9-3.8-4.9c-2.8,0-4.6,2.1-4.6,8.1c0,6.6,3.4,9.8,8.7,11.7c3,1.1,5.9,2.5,7.8,5.5l-1.7,1
				c-1.5-2.5-4.2-4.4-7.6-4.4c-2.3,0-4.3,0.6-5.9,1.4l-0.6-2c1.6-0.6,3.6-1,5.9-0.8c-5.1-1.9-8.8-5.1-8.8-12.8
				c0-7.1,3.2-9.5,6.7-9.5c3,0,4.7,1.6,5.1,4.4c0.4-2.8,2.3-4.4,5.1-4.4C328.5,138.9,331.6,141.5,331.6,148.1z"/>
			<path class="st0" d="M353.4,158.8c0,4.9-2.9,8.3-7.9,8.3c-4.9,0-7.6-3-7.6-7c0-1.5,0.3-2.8,1-4.1l1.9,0.5
				c-0.4,1.1-0.6,2.2-0.6,3.5c0,3.2,2,5.2,5.4,5.2c3.8,0,5.6-2.7,5.6-6.6c0-3.7-2.1-6.2-5.7-6.2H344l0.2-1.9h1.3
				c2.6,0,4.9-1.5,4.9-4.9c0-2.8-1.6-4.8-4.9-4.8c-3.2,0-4.9,1.8-4.9,4.4c0,1.1,0.2,1.9,0.5,2.6l-2,0.4c-0.4-0.9-0.7-1.9-0.7-3.2
				c0-3.6,2.9-6,7.1-6c4.4,0,7.2,2.8,7.2,6.5c0,3.6-2.4,5.3-5,5.9C350.5,151.7,353.4,153.9,353.4,158.8z"/>
			<path class="st0" d="M374.2,146.4v12.7c0,4.8-2.7,7.9-7.3,7.9c-4.9,0-7.4-3.2-7.4-7.1c0-1.7,0.4-3.2,1.1-4.6l1.9,0.5
				c-0.5,1.3-0.7,2.5-0.7,4.1c0,3.2,1.9,5.2,5.2,5.2c3.5,0,5.1-2.4,5.1-6.3v-12.3c0-3.6-1.5-5.8-4.9-5.8c-3.3,0-4.7,2.1-4.7,4.5
				c0,1.4,0.3,2.4,0.6,3.3l-2,0.5c-0.5-1.1-0.9-2.4-0.9-3.8c0-3.8,2.9-6.3,7-6.3C371.3,138.9,374.2,141.6,374.2,146.4z"/>
			<path class="st0" d="M397,158.8c0,4.9-2.9,8.3-7.9,8.3c-4.9,0-7.6-3-7.6-7c0-1.5,0.3-2.8,1-4.1l1.9,0.5c-0.4,1.1-0.6,2.2-0.6,3.5
				c0,3.2,2,5.2,5.4,5.2c3.8,0,5.6-2.7,5.6-6.6c0-3.7-2.1-6.2-5.7-6.2h-1.5l0.2-1.9h1.3c2.6,0,4.9-1.5,4.9-4.9
				c0-2.8-1.6-4.8-4.9-4.8c-3.2,0-4.9,1.8-4.9,4.4c0,1.1,0.2,1.9,0.5,2.6l-2,0.4c-0.4-0.9-0.7-1.9-0.7-3.2c0-3.6,2.9-6,7.1-6
				c4.4,0,7.2,2.8,7.2,6.5c0,3.6-2.4,5.3-5,5.9C394,151.7,397,153.9,397,158.8z"/>
			<path class="st0" d="M417.5,152.8c0,4.2-3.1,6.9-7.3,6.9c-4.7,0-7.3-3-7.3-6.7c0-1.4,0.3-2.7,0.9-3.9l1.9,0.5
				c-0.4,1.1-0.6,2.2-0.6,3.3c0,3,2,4.9,5.1,4.9c3.3,0,5-2.1,5-5.1c0-5.9-6.3-7.3-6.3-13.4h2.2C411.1,144.4,417.5,146.4,417.5,152.8
				z"/>
		</g>
		<path class="st0" d="M282.6,111.7h-47.7c-3.4,0.1-6.2-2.5-6.3-5.8c-0.1-3.4,2.5-6.2,5.8-6.3c0.2,0,0.3,0,0.5,0h47.7
			c6.1,0,11.1-5,11.1-11.1c0-2.2-0.7-4.4-1.9-6.3l-35.5-52c-1.9-2.8-1.2-6.6,1.6-8.5c2.8-1.9,6.6-1.2,8.5,1.6l0,0l35.5,52
			c7.2,10.6,4.5,25.1-6.1,32.4C291.8,110.3,287.3,111.7,282.6,111.7z"/>
		<path class="st0" d="M527.9,111.7h-47.7c-3.4-0.1-6-3-5.8-6.3c0.1-3.2,2.7-5.7,5.8-5.8h47.7c6.1,0,11.1-5,11.1-11.1
			c0-2.2-0.7-4.4-1.9-6.3l-35.5-52c-1.8-2.8-1-6.6,1.8-8.4c2.7-1.8,6.4-1.1,8.3,1.6l35.5,52c7.2,10.6,4.5,25.1-6.1,32.4
			C537.1,110.2,532.6,111.7,527.9,111.7z"/>
		<path class="st0" d="M341.9,111.7c-2,0-3.9-1-5-2.7l-35.5-52c-7.2-10.6-4.5-25.1,6.1-32.4c3.9-2.6,8.4-4,13.1-4h47.7
			c3.4,0.1,6,3,5.8,6.3c-0.1,3.2-2.7,5.7-5.8,5.8h-47.7c-6.1,0-11.1,5-11.1,11.1c0,2.2,0.7,4.4,1.9,6.2l35.5,52
			c1.9,2.8,1.2,6.5-1.6,8.4C344.4,111.3,343.2,111.6,341.9,111.7L341.9,111.7z"/>
		<path class="st0" d="M456.1,66.1l8.7-12.8c6.5-9.6,4-22.7-5.6-29.2c-3.5-2.3-7.5-3.6-11.7-3.6h-46.4c-11.6,0-21,9.4-21,21l0,0
			v12.7l0,0c0,11.6,9.4,21,21,21h9.7c11.6,0,21-9.4,21-21l0,0V41.5c0-3-0.7-6-1.9-8.8h17.7c4.8,0,8.8,3.9,8.8,8.8
			c0,1.8-0.5,3.5-1.5,4.9l-11.1,16.2c-1.4,2.1-1.4,4.8,0,6.9l11.1,16.2c2.7,4,1.7,9.5-2.3,12.2c-1.5,1-3.2,1.5-4.9,1.5h-58.8
			c-3.4,0-6.1,2.7-6.1,6.1c0,3.4,2.7,6.1,6.1,6.1h58.8c11.6,0,21-9.5,20.9-21.1c0-4.2-1.3-8.2-3.6-11.7L456.1,66.1z M419.6,41.5
			v12.8c0,4.8-3.9,8.8-8.8,8.8h-9.7c-4.8,0-8.8-3.9-8.8-8.8V41.5c0-4.8,3.9-8.8,8.8-8.8h9.8C415.7,32.8,419.6,36.7,419.6,41.5z"/>
	</g>
</g>
</svg>
